<svg id="Layer_1" data-name="Layer 1" xmlns="http://www.w3.org/2000/svg" viewBox="0 0 428.4 108"><defs><style>.cls-1{fill:#fff;}.cls-2{font-size:104.86px;fill:#231f20;font-family:Raleway-Black, Raleway;font-weight:800;letter-spacing:0em;}.cls-3{letter-spacing:-0.03em;}.cls-4{letter-spacing:0em;}</style></defs><path d="M57.83,78.82l.47-.6c1.17,1.14,7.85.54,8.74-.86l.38.65.73-1.79v1.39l.3.07L69,75.6,69.2,77h.18V74.16l.22,0c.17.6.33,1.2.49,1.81l.2,0L70,73,70.2,73l.58,1.93c.28-3.16-1.49-5.1-3-7.15l.19.84.14-.32c-2.39-1.66-4.68-3.51-7.21-4.92-2.71-1.5-5.66-2.58-8.82-4l7.35,2.22A5.78,5.78,0,0,1,63.79,58l.32.74-1.1,1h8.13l.09.53c-2,.52-4.4.12-5.51,2.36l.89-.14-1.21,1,.86-.18c.6,2.13,2.43,2.48,4.11,3.15h-2l-.25.4c.79.65,1.61,1.28,2.38,1.94a11.29,11.29,0,0,1,2.13,2c1.24,1.84,2.34,3.79,3.43,5.73.34.6.33,1.4.7,2s-.1,1.77,1.3,1.5a12.74,12.74,0,0,1,.83,2.17L79.15,81,80,83.49l.21-1.27.21,0c.13.87.25,1.75.38,2.71l.52-.86.17.07-.42,2.4.89-.69-.77,2a13.23,13.23,0,0,1-5.85-4.66c-1.34,2.13-.55,4.4-1.09,6.52l.81-.71c-.35,1-.64,1.91-1.09,3.29L71,87.88v1.05l-.8-.66.57,1.83-.75-.72c.08,2.13-1.25,3.4-2.39,4.78L67.24,94c-.21-1.09-.38-2.18-.62-3.26a3.71,3.71,0,0,0-4.36-3,22.55,22.55,0,0,0-4.81,1.5A32.15,32.15,0,0,1,32.13,90a6.22,6.22,0,0,0-2.44-.25,20.83,20.83,0,0,1-7.24-.42,19.68,19.68,0,0,0-6.09-.48c-2.22.08-4.21,0-5.71-1.93-.2-.25-.65-.3-1-.46a11.22,11.22,0,0,1-2.77-1.53,3.11,3.11,0,0,1-.68-2.34,12.43,12.43,0,0,0-.38-6.23c-1.93-5.28-1-10.49.81-15.55a86.75,86.75,0,0,1,4.15-9.54A100.47,100.47,0,0,0,17.64,33c.31-1.11.08-2.37.41-3.47a13.12,13.12,0,0,1,1.76-4.07,56.7,56.7,0,0,1,4.52-5.17,5.42,5.42,0,0,1,1.77-1.37c2.67-1.1,5.39-2.09,8.09-3.12l.21.43-7.19,4.24a4.53,4.53,0,0,0,.08-.66l-1.77,2.6-.12,0,.54-1.47-.15-.08a9.48,9.48,0,0,0-.63.79,41.09,41.09,0,0,0-2.86,4.94l.26-1.73-.2-.15a22.74,22.74,0,0,0-2.71,3.37,5.18,5.18,0,0,0,.73,5.71c.47.62.08,1.5,1,1.73l.26-1.16.74,2.35c-1.79-.9-2.16.45-2.78,1.4l.3-.17-1,9.37-.53-1.08h-.48c-.15,1.6-.26,3.2-.46,4.8-.17,1.37-.43,2.74-.64,4.1h.71l-1.58,1.33.08.16,1.17-.37.08.16-1.51,1.17.07.2,1.35-.5.15.2-2,1.47,1.5-.35.1.19-2,1.36L13.78,58C11.22,59,10.06,69.74,12,74.68l.25-.86L13,76.4l.22,0L13,74.63,14.46,78l.35-.78.57,1,1.82.52.12.43-4.31,2,2.92.46L15.68,81c2.28.22,3.62-1.82,5.84-2.41l-2.88,4.14c2.91,2.46,5.91,2.09,9,.51l.12.38c-.21.26-.41.53-.64.77s-.55.5-.94.85l.76,1,.36-.27c0-.21-.06-.43-.05-.39a8.81,8.81,0,0,0,2.2-.18c2.07-.72,4.09-1.58,6.15-2.33A3.19,3.19,0,0,1,37.23,83l-.67.26c.77.38,1.57.84,2.42,1.18a8.28,8.28,0,0,0,2.25.66A31.29,31.29,0,0,0,55.12,83.6,9.22,9.22,0,0,0,58.43,81C58.7,80.74,58.07,79.64,57.83,78.82Zm5.66,4L64,81.66a53.89,53.89,0,0,1-5.09,2.77,51.55,51.55,0,0,1-5.46,1.67,10.81,10.81,0,0,0,7.1-1.37c2-1.11,3.39-.54,4.22,1.67H62.3V85.35l-3.47,2.59c2.38-.74,4.3-1.26,6.35-.12S67,91.23,67.75,93A12,12,0,0,0,63.49,82.77ZM52.81,90.41c-6.38.82-12.14-.36-17.9-1.79a11.24,11.24,0,0,0-2.66,0C36.18,91.61,46.7,92.47,52.81,90.41ZM74,79.7c-2.05.1-4.09.23-6.14.28s-4.19,0-6.35,0c1.68,1.14,3.52.94,5.37.73,3.85-.43,7.56-.55,10,3.36a8.76,8.76,0,0,0,2.13,1.73l0-.19L72.18,74.56C72.8,76.26,73.45,78.05,74,79.7ZM9,56.42l.23.12,3.37-4.95c.41,1.62.75,2.94,1.12,4.39.5-4.7,1-9.15,1.34-12.64Zm-2.9,8.27a17.57,17.57,0,0,0-.46,8.36c.51,2.6,1.23,5.13,3.29,7,.65.59,1.38,1.15,2.48.23C5.67,76.38,5.8,70.57,6.11,64.69ZM10.3,83.88A4.26,4.26,0,0,0,14,88.21c2.68.55,4.92-.09,5.73-1.76C15.86,88.16,12.56,87.91,10.3,83.88Zm9.2,4.23c3.63.54,6.84,2.4,10.4,1C26.5,89,23.34,86.68,19.5,88.11Zm-.94-58.66c-.5,2.54-1.11,5.71-1.75,9l1.8-4.06.76.63ZM7.05,81.22C6.17,84,7.3,85.7,10.33,86,9.05,84.35,6.49,83.82,7.05,81.22Zm8.47,2.46-4.4-.6A3.38,3.38,0,0,0,15.52,83.68Zm48.37-22.6-.22-.47-3.37,1.5.27.6C62,63,62.54,61.09,63.89,61.08Z"/><path d="M46.76,32.27c-1-1-1.52.36-2.28.55s-1.34.61-2,.75a21.35,21.35,0,0,1-3.64.48c-1.63.05-3.25-.09-4.88-.11a1.58,1.58,0,0,0-1,.24c-1.92,1.54-4.11,1.2-6.25.86a4.17,4.17,0,0,1-2.06-1.31l4.05.34.06-.36a27,27,0,0,1-4.35-1.29c-1.94-1-2.73-2.32-1.86-3.7l1,2.41V27.84a23.27,23.27,0,0,0,3,.94c2.49.44,2.84.08,2.63-2.17l2.71,1-.76-1.83,2.36,1.39V24.7l1.18,1.57.36-.21V24c.91,1.47,1.79,3,2.8,4.46a2.1,2.1,0,0,0,1.41.75c1.52.14,2-.6,1.41-2-.39-.92-.79-1.83-1.19-2.75l.47-.22c.71,1,1.42,2,2.12,3,.24.35.47.7.69,1.06a1.29,1.29,0,0,0,2,.36,1.65,1.65,0,0,0,.39-1.52c-.52-1.34-1.27-2.6-1.88-3.92a7,7,0,0,1-.55-1.85c0-.23.36-.51.79-.68-1,1.64.67,2.33,1.07,3.38a28.52,28.52,0,0,0,1.73,2.88,1.58,1.58,0,0,0,2.25.73c1.11-.43.75-1.3.42-2-.64-1.35-1.39-2.65-2.09-4-.39-.74-.85-1.48-.28-2.06,1,1.57,1.89,3.2,3,4.72.36.5,1.29,1.15,1.62,1,.62-.29,1-1.11,1.35-1.55.35,1.36-.62,2.44-1.75,3.5a4.09,4.09,0,0,0-.6,1.24c-1.38-.79-1.8.57-2.44,1.53l.06,0-1.59.89ZM23.94,30.19c2.33,3,7.48,3.45,9.71.91A12.13,12.13,0,0,1,23.94,30.19Zm10.57.39-.36.41c.68.61,1.27,1.54,2.05,1.74s1.77-.3,2.66-.5l-.08-.38C36.37,32.62,36.18,32.56,34.51,30.58Z"/><path d="M46.21,74.92c-3.06.29-6.13.73-9-1.47l.5,1-.17.1-1.86-2.06-.2.1L36.25,74l-.22.15-2.78-3.66-.37.68-.21,0,.24-3.45c-1.76,1.45-2.42,4-5.27,4.17C29.22,70,30.41,68.3,30.2,66c-1.43,3-2.33,6.49-6.81,5.8,2.72-.51,4.36-2.33,5.57-4.6l-3.8.63-.32-.71c3.17.12,4.74-1.73,6-4.16L30.5,65.5l4.3-1.59-.6,2.18c1.3-1.47,2.72-3.16,4.25-4.73a4.29,4.29,0,0,1,1.89-.77c-1,.94-2.63,1.48-1.54,3.32l.25-1,.22.7,1-.29c-1.31,1.45-2.85,2.62-2.71,5l.32-.38,1.53,3.37.19-1C40.94,73.17,43.69,73.81,46.21,74.92Z"/><path d="M24.88,59l-.72-.29,1,1.6-.13.14-1-.72-.17.16,1.49,1.93-.31.21c-.86-.78-1.84-1.58-1.64-2.91.4-2.63.89-5.25,1.48-7.84s1.69-5.22,2-7.88a12.47,12.47,0,0,1,1.86-5.22c-.63,2.48-1.14,4.66-1.76,6.8-.66,2.29.25,4.33.74,6.5l-1-1.78-.42,0C25.82,52.77,25.35,55.86,24.88,59Z"/><path d="M83.68,61.71c-1.78-.51-3.56-1-5.31-1.56-.25-.08-.47-.5-.56-.8a18.82,18.82,0,0,1-.44-1.84C79.79,58,81.64,60.05,83.68,61.71Z"/><path d="M47.66,30.07l1-.1c.4,1.59,2,2.58,4,2.38l.12.37a8.15,8.15,0,0,1-1.59.5,11,11,0,0,1-1.81,0,14.33,14.33,0,0,1-1.27-.72c-1.11-.74-1.2-1.39-.38-2.42Z"/><path class="cls-1" d="M47.72,30c-.82,1-.73,1.68.38,2.42a14.33,14.33,0,0,0,1.27.72l-2.61-.9-.63-1.35Z"/><path d="M47.48,15.28,50,18.79l-.25.21L47,15.68Z"/><path class="cls-1" d="M63.49,82.77A12,12,0,0,1,67.75,93c-.73-1.79-.4-4-2.57-5.2s-4-.62-6.35.12l3.47-2.59V86.4h2.43c-.83-2.21-2.26-2.78-4.22-1.67a10.81,10.81,0,0,1-7.1,1.37,51.55,51.55,0,0,0,5.46-1.67A53.89,53.89,0,0,0,64,81.66Z"/><path class="cls-1" d="M52.81,90.41c-6.11,2.06-16.63,1.2-20.56-1.82a11.24,11.24,0,0,1,2.66,0C40.67,90.05,46.43,91.23,52.81,90.41Z"/><path class="cls-1" d="M74,79.7c-.59-1.65-1.24-3.44-1.86-5.14l6.91,11.06,0,.19a8.76,8.76,0,0,1-2.13-1.73c-2.44-3.91-6.15-3.79-10-3.36-1.85.21-3.69.41-5.37-.73,2.16,0,4.26,0,6.35,0S72,79.8,74,79.7Z"/><path class="cls-1" d="M9,56.42l6.06-13.08c-.37,3.49-.84,7.94-1.34,12.64-.37-1.45-.71-2.77-1.12-4.39L9.24,56.54Z"/><path class="cls-1" d="M6.11,64.69c-.31,5.88-.44,11.69,5.31,15.59-1.1.92-1.83.36-2.48-.23-2.06-1.87-2.78-4.4-3.29-7A17.57,17.57,0,0,1,6.11,64.69Z"/><path class="cls-1" d="M10.3,83.88c2.26,4,5.56,4.28,9.43,2.57-.81,1.67-3.05,2.31-5.73,1.76A4.26,4.26,0,0,1,10.3,83.88Z"/><path class="cls-1" d="M19.5,88.11c3.84-1.43,7,.9,10.4,1C26.34,90.51,23.13,88.65,19.5,88.11Z"/><path class="cls-1" d="M18.56,29.45l.81,5.61-.76-.63-1.8,4.06C17.45,35.16,18.06,32,18.56,29.45Z"/><path class="cls-1" d="M7.05,81.22c-.56,2.6,2,3.13,3.28,4.75C7.3,85.7,6.17,84,7.05,81.22Z"/><path class="cls-1" d="M15.52,83.68a3.38,3.38,0,0,1-4.4-.6Z"/><path class="cls-1" d="M63.89,61.08c-1.35,0-1.85,1.88-3.32,1.63l-.27-.6,3.37-1.5Z"/><path class="cls-1" d="M23.94,30.19a12.13,12.13,0,0,0,9.71.91C31.42,33.64,26.27,33.16,23.94,30.19Z"/><path class="cls-1" d="M34.51,30.58c1.67,2,1.86,2,4.27,1.27l.08.38c-.89.2-1.87.71-2.66.5S34.83,31.6,34.15,31Z"/><text class="cls-2" transform="translate(95.16 90.14)">FI<tspan class="cls-3" x="92.7" y="0">T</tspan><tspan class="cls-4" x="155.41" y="0" xml:space="preserve"> ME</tspan></text></svg>