<?xml version="1.0" encoding="utf-8"?>
<!-- Generator: Adobe Illustrator 25.2.0, SVG Export Plug-In . SVG Version: 6.00 Build 0)  -->
<svg version="1.1" id="Layer_1" xmlns="http://www.w3.org/2000/svg" xmlns:xlink="http://www.w3.org/1999/xlink" x="0px" y="0px"
	 viewBox="0 0 428.4 108" style="enable-background:new 0 0 428.4 108;" xml:space="preserve">
<style type="text/css">
	.st0{fill:#FFFFFF;}
	.st1{fill:#111111;}
	.st2{font-family:'Raleway-Black';}
	.st3{font-size:104.8639px;}
</style>
<g>
	<g>
		<path d="M-5577.5,292.7c0.7-0.8,2.5-3.3,4.4-5.7c11,10.7,74,5.1,82.4-8.1c1,1.8,2,3.5,3.6,6.1c2.1-5.2,3.9-9.5,6.9-16.9
			c0,6.4,0,9.8,0,13.1c0.9,0.2,1.8,0.4,2.7,0.7c1.6-5.9,3.1-11.8,5.2-19.6c0.8,5.6,1.4,9.5,1.9,13.4c0.5,0,1.1,0.1,1.6,0.1
			c0-9,0-18.1,0-27.1c0.7-0.1,1.4-0.2,2.1-0.2c1.5,5.7,3.1,11.4,4.6,17.1c0.6-0.1,1.2-0.2,1.9-0.3c-0.8-9.1-1.5-18.3-2.3-27.4
			c0.5-0.2,1-0.4,1.5-0.5c1.5,5.1,3,10.1,5.5,18.2c2.6-29.8-14.1-48-28.7-67.3c0.6,2.6,1.2,5.2,1.8,7.8c0.4-1,0.9-2,1.3-3
			c-22.6-15.6-44.1-33.1-68-46.4c-25.6-14.2-53.3-24.3-83.1-37.5c24.3,7.3,45.9,13.9,69.3,20.9c7.2-16.9,21-29.3,41.5-33.2
			c0.7,1.7,1.5,3.5,3,6.9c-2.8,2.5-6.5,5.9-10.3,9.4c25.9,0,51.3,0,76.6,0c0.3,1.7,0.5,3.4,0.8,5.1c-18.8,4.9-41.5,1.1-51.9,22.2
			c1.1-0.2,3.5-0.6,8.3-1.3c-4.3,3.7-7.2,6.2-11.4,9.8c4.2-0.8,6.6-1.3,8.1-1.6c5.7,20,23,23.3,38.8,29.7c-6.3,0-12.5,0-18.8,0
			c-0.8,1.3-1.6,2.5-2.4,3.8c7.5,6.1,15.2,12,22.5,18.3c7,6,15.1,11.4,20,18.8c11.7,17.4,22.1,35.7,32.4,54
			c3.2,5.7,3.1,13.2,6.6,18.6c3.1,4.8-0.9,16.7,12.2,14.1c1.1-0.2,4.7,12.1,7.9,20.5c0.9-4.6,1.5-7.4,2.4-11.8
			c2.7,7.9,5,14.4,8.1,23.5c0.9-5.8,1.5-8.9,2-11.9c0.7-0.1,1.3-0.1,2-0.2c1.2,8.2,2.3,16.5,3.6,25.6c1.8-3,3.4-5.6,4.9-8.1
			c0.5,0.2,1.1,0.4,1.6,0.6c-1.3,7.1-2.5,14.2-4,22.7c2.8-2.2,4.5-3.5,8.4-6.5c-2.8,7.5-4.8,12.7-7.2,19.1
			c-22.9-8.9-40.2-23.9-55.1-43.9c-12.7,20.2-5.3,41.5-10.4,61.5c2.4-2.1,4.2-3.7,7.6-6.7c-3.3,9.9-6,18-10.3,31
			c-10.7-16.1-19.4-29.3-27.6-41.6c0,1.7,0,5.5,0,9.9c-2.2-1.8-4.1-3.4-7.5-6.2c2,6.3,3.4,11,5.4,17.2c-3.1-2.9-5-4.7-7.1-6.7
			c0.7,20.1-11.8,32-22.5,45c-1.4-0.4-2.7-0.8-4.1-1.2c-1.9-10.2-3.6-20.6-5.9-30.7c-4.4-19.5-21.4-32-41.1-28.1
			c-15.4,3-30.9,7.7-45.3,14.1c-78.8,35-158.1,37.2-238.7,6.9c-7-2.6-15.4-2.9-23-2.4c-23,1.5-45.3,2.4-68.3-4
			c-18.2-5.1-38.3-5.2-57.4-4.5c-20.9,0.8-39.7-0.3-53.9-18.2c-1.9-2.4-6.1-2.8-9.1-4.3c-8.9-4.6-19.4-7.7-26.2-14.4
			c-4.8-4.8-7.3-14.9-6.4-22c2.8-20,3.6-39.2-3.6-58.8c-18.2-49.7-9.7-98.9,7.6-146.6c11.1-30.7,24.4-60.7,39.1-89.9
			c27.8-55.1,47.9-113,64.4-172.2c2.9-10.5,0.8-22.3,3.8-32.8c3.9-13.3,8.6-27.3,16.6-38.3c12.6-17.4,28-32.9,42.7-48.7
			c4.7-5.1,10.4-10.3,16.7-12.9c25.2-10.4,50.8-19.7,76.2-29.4c0.7,1.4,1.3,2.7,2,4.1c-23,13.5-46,27.1-67.8,39.9
			c-0.2,1.5,0.1-0.7,0.7-6.2c-6.7,9.8-11.7,17.2-16.7,24.5c-0.4-0.1-0.8-0.2-1.1-0.4c1.7-4.6,3.4-9.2,5.1-13.9
			c-0.5-0.3-1-0.5-1.4-0.8c-2,2.5-4.2,4.8-5.9,7.5c-9.6,14.9-19.1,29.8-27,46.6c0.8-5.4,1.6-10.8,2.5-16.3c-0.6-0.5-1.3-1-1.9-1.5
			c-8.7,10.5-19.2,20-25.6,31.8c-10.2,18.7-4.5,38.8,6.9,53.9c4.4,5.8,0.7,14.2,9.2,16.3c0.4-1.8,1-4.5,2.5-10.9
			c2.7,8.7,4.4,14.2,7,22.1c-16.9-8.5-20.4,4.2-26.2,13.2c1.9-1,3.8-2.1,2.8-1.6c-3.1,27.9-6.3,57.7-9.7,88.3
			c-1.8-3.6-3.4-6.9-5.1-10.1c-1.5,0-3-0.1-4.5-0.1c-1.4,15.1-2.5,30.2-4.3,45.2c-1.6,13-4,25.8-6.1,38.7c-0.2,0,2,0,6.7,0
			c-6.1,5.1-10.5,8.8-14.9,12.5c0.3,0.5,0.5,1,0.8,1.5c3.7-1.2,7.4-2.3,11.1-3.5c0.3,0.5,0.5,1,0.8,1.5c-4.8,3.7-9.5,7.3-14.3,11
			c0.2,0.6,0.5,1.3,0.7,1.9c4.2-1.6,8.5-3.2,12.7-4.7c0.5,0.6,1,1.3,1.4,1.9c-5.2,3.9-10.4,7.8-18.5,13.8c7-1.6,10.6-2.4,14.1-3.3
			c0.3,0.6,0.6,1.2,1,1.8c-5.9,4-11.7,7.9-18.9,12.8c-3.8-7.3-7.1-13.8-10.5-20.1c-24.2,9.2-35.1,110.9-16.9,157.5
			c0.8-2.9,1.4-5.2,2.3-8.2c2.5,8.7,4.7,16.5,7,24.4c0.7-0.1,1.4-0.2,2.1-0.2c-0.5-4.5-1.1-9-2-16.5c5.3,12.1,9.3,21.3,13.8,31.7
			c1.4-3,2.1-4.7,3.3-7.4c2.4,4.1,4.5,7.6,5.3,9c6.9,2,12.1,3.5,17.2,4.9c0.4,1.3,0.8,2.7,1.2,4c-12.3,5.7-24.6,11.3-40.7,18.7
			c11.1,1.7,18.7,2.9,27.6,4.4c-1.1-2.7-1.8-4.4-2.4-5.8c21.4,2.1,34.1-17.1,55-22.7c-10,14.4-19.1,27.4-27.1,39
			c27.4,23.2,55.6,19.7,84.6,4.8c0.4,1.2,0.7,2.4,1.1,3.6c-2,2.5-3.8,5.1-6,7.3c-2.4,2.5-5.2,4.7-8.9,8c2.7,3.4,5,6.3,7.2,9.2
			c1.1-0.8,2.3-1.7,3.4-2.5c-0.3-2-0.6-4.1-0.5-3.7c7-0.5,14.4,0.4,20.7-1.7c19.5-6.7,38.6-14.8,58-21.9c4.7-1.7,10.1-1.5,15.6-0.5
			c-2.8,1.1-5.6,2.2-6.3,2.5c7.3,3.6,14.8,7.9,22.8,11.1c6.8,2.8,14,5.6,21.3,6.2c44.5,3.9,88.8,2.1,130.9-13.8
			c11.9-4.5,22.4-14.5,31.2-24.2C-5569.3,310.8-5575.2,300.4-5577.5,292.7z M-5524.2,330c1.5-3.5,2.8-6.5,4.5-10.5
			c-17,9.4-31.8,19.3-47.9,26.1c-16.5,6.9-34.2,10.7-51.5,15.8c17.6,4.5,45.4-0.9,66.9-13c18.5-10.4,31.9-5.1,39.8,15.7
			c-7.5,0-15,0-23,0c0-3.5,0-6.9,0-9.9c-10,7.4-19.8,14.8-32.7,24.4c22.4-7,40.5-11.9,59.9-1.2c20.4,11.3,17.3,32.2,24.1,49.1
			C-5482.1,388.1-5494.3,355.4-5524.2,330z M-5624.8,402c-60.1,7.7-114.5-3.4-168.7-16.9c-7.9-2-16.7-0.3-25.1-0.3
			C-5781.5,413.2-5682.4,421.4-5624.8,402z M-5424.7,301c-19.4,0.9-38.6,2.1-57.8,2.6c-19.7,0.4-39.5,0.1-59.9,0.1
			c15.8,10.8,33.1,8.9,50.6,6.9c36.2-4.1,71.2-5.1,94.3,31.6c4.3,6.9,13.3,11,20.1,16.3c0.1-0.6,0.2-1.2,0.3-1.8
			c-21.8-34.9-43.5-69.8-65.1-104.3C-5436.3,268.6-5430.3,285.5-5424.7,301z M-6037.7,81.5c0.7,0.4,1.5,0.7,2.2,1.1
			c10.2-15,20.4-30,31.7-46.7c3.9,15.3,7.1,27.7,10.6,41.4c4.7-44.3,9.1-86.2,12.6-119.2C-5997-6.3-6017.4,37.6-6037.7,81.5z
			 M-6065,159.5c-7.6,26.1-9.5,52.4-4.3,78.8c4.8,24.5,11.6,48.3,31,66c6.1,5.6,13,10.9,23.3,2.2
			C-6069.2,269.7-6067.9,214.9-6065,159.5z M-6025.5,340.4c0.1,21.8,13.4,36.5,34.8,40.8c25.3,5.1,46.4-0.9,54.1-16.6
			C-5973.1,380.7-6004.2,378.4-6025.5,340.4z M-5938.8,380.3c34.2,5.1,64.5,22.6,98,9.3C-5872.8,388.8-5902.6,366.7-5938.8,380.3z
			 M-5947.7-172.8c-4.6,24-10.4,53.9-16.5,85.2c5.9-13.3,11.4-25.6,17-38.2c4.1,3.4,6.8,5.6,7.2,5.9
			C-5942.7-138.2-5945.6-158.2-5947.7-172.8z M-6056.2,315.3c-8.4,25.9,2.3,42.2,30.9,44.7C-6037.3,344.9-6061.4,339.8-6056.2,315.3
			z M-5976.4,338.5c-13.1-1.8-27.7-3.7-41.5-5.6C-6008.6,344.8-5991.5,346.8-5976.4,338.5z M-5520.4,125.5c-0.7-1.5-1.4-3-2-4.5
			c-10.6,4.7-21.2,9.5-31.7,14.2c0.8,1.9,1.7,3.7,2.5,5.6C-5537.8,143.2-5533.1,125.6-5520.4,125.5z"/>
		<path d="M-5681.9-146.2c-9.8-9.3-14.3,3.5-21.5,5.2c-6.6,1.6-12.6,5.7-19.2,7c-11.3,2.3-22.9,4.2-34.4,4.5
			c-15.3,0.5-30.6-0.9-46-1.1c-3.1,0-7.1,0.5-9.4,2.3c-18.1,14.5-38.7,11.3-58.9,8.1c-7.3-1.2-13.9-7-19.4-12.3
			c12.7,1,25.4,2.1,38.2,3.1c0.2-1.1,0.4-2.2,0.6-3.4c-13.7-3.9-28.4-6-41-12.2c-18.3-9-25.7-21.9-17.5-34.8
			c2.8,6.5,5.7,13.4,9.6,22.7c0-12.2,0-21.3,0-31c10.6,3.4,19.1,7.3,28.1,8.9c23.4,4.1,26.8,0.7,24.8-20.5
			c7.5,2.7,15.8,5.6,25.5,9.1c-2.4-5.7-4.1-9.9-7.1-17.3c8.7,5.1,14.7,8.6,22.2,13.1c0-9.2,0-15.3,0-22.9
			c4.4,5.9,7.8,10.4,11.1,14.9c1.1-0.7,2.3-1.3,3.4-2c0-7,0-14,0-19.6c8.6,13.9,16.9,28.4,26.4,42.1c2.6,3.7,8.6,6.7,13.2,7.1
			c14.4,1.3,19-5.7,13.4-18.9c-3.7-8.7-7.5-17.3-11.3-26c1.5-0.7,3-1.4,4.5-2.1c6.7,9.5,13.4,18.9,20,28.4c2.3,3.3,4.4,6.6,6.5,10
			c4.9,7.8,12.6,7.5,18.5,3.4c3.2-2.2,5.2-10.4,3.7-14.3c-4.9-12.7-12-24.6-17.7-37c-2.5-5.5-4.4-11.5-5.2-17.5
			c-0.3-2.1,3.4-4.8,7.4-6.4c-8.9,15.4,6.3,22,10.1,31.9c3.8,9.7,11.3,17.8,16.3,27.1c5.1,9.6,12.6,10.2,21.2,6.9
			c10.5-4,7.1-12.3,4-18.8c-6-12.8-13.2-25-19.8-37.5c-3.7-6.9-8-13.9-2.6-19.4c9.2,14.8,17.9,30.2,28,44.5
			c3.3,4.7,12.1,10.8,15.2,9.3c5.9-2.8,9.5-10.5,12.8-14.6c3.3,12.8-5.9,23-16.6,33c-2.7,2.5-3.5,7.1-5.6,11.7
			c-13-7.4-17,5.3-23,14.4l0.5-0.4c-5.2,2.9-10.3,5.9-14.9,8.5C-5685.6-154.3-5683.8-150.2-5681.9-146.2z M-5896.9-165.7
			c22,28,70.4,32.5,91.5,8.5C-5837.5-146.4-5866.9-150.8-5896.9-165.7z M-5797.3-162.1c-1.1,1.3-2.3,2.6-3.4,3.9
			c6.4,5.7,12,14.5,19.4,16.4c7.4,1.9,16.6-2.8,25.1-4.7c-0.3-1.2-0.5-2.4-0.8-3.6C-5779.8-142.8-5781.6-143.4-5797.3-162.1z"/>
		<path d="M-5687.1,255.9c-28.8,2.7-57.7,6.9-84.5-13.9c2,4,3.4,6.6,4.7,9.2c-0.5,0.3-1.1,0.6-1.6,0.9c-5.8-6.5-11.7-12.9-17.5-19.4
			c-0.6,0.3-1.3,0.6-1.9,1c2.3,4.4,4.7,8.8,7,13.3c-0.7,0.5-1.4,0.9-2.1,1.4c-8.6-11.3-17.2-22.5-26.2-34.5c-0.9,1.6-2.2,4-3.5,6.3
			c-0.6-0.2-1.3-0.3-1.9-0.5c0.7-9.9,1.4-19.8,2.3-32.4c-16.6,13.6-22.8,38.1-49.7,39.3c14.9-16.8,26.1-33.1,24.1-55
			c-13.5,27.8-22,61.1-64.2,54.6c25.6-4.8,41.1-21.9,52.4-43.4c-11.7,1.9-23.7,4-35.8,6c-1-2.2-2-4.5-3-6.7
			c29.9,1.2,44.6-16.3,56.3-39.2c-1,8.3-2,16.6-3,24.2c12.6-4.7,24.8-9.2,40.5-15c-3,10.8-4.8,17.2-5.7,20.6
			c12.3-13.8,25.6-29.7,40.1-44.6c4.2-4.3,11.4-5.5,17.8-7.3c-9.2,8.9-24.8,13.9-14.6,31.3c0.6-2.3,1.3-5,2.4-9.2
			c1.1,3.6,1.8,5.8,2,6.6c3.2-0.9,6.3-1.8,9.4-2.8c-12.4,13.7-26.9,24.7-25.5,46.9c1.7-2.1,2.7-3.2,3-3.6
			c4.5,9.9,9.1,20.1,14.3,31.8c0.8-3.9,1.3-6.3,1.9-9.1C-5736.7,239.4-5710.8,245.5-5687.1,255.9z"/>
		<path d="M-5888.1,105.9c-0.8-0.3-2.6-1.1-6.8-2.7c4.2,6.6,6.9,10.8,9.6,15.1c-0.4,0.4-0.8,0.9-1.2,1.3c-3-2.3-6.1-4.5-9.1-6.8
			c-0.5,0.5-1.1,1-1.6,1.5c4.7,6.1,9.3,12.1,14,18.2c-1,0.7-2,1.3-2.9,2c-8.1-7.3-17.3-14.9-15.4-27.4c3.8-24.8,8.4-49.5,13.9-73.9
			c5.7-24.9,15.9-49.2,18.6-74.4c1.9-17.7,7.6-32,17.6-49.1c-6,23.4-10.8,43.9-16.6,64.1c-6.3,21.6,2.4,40.8,7,61.3
			c-3.3-5.6-6.6-11.2-9.9-16.8c-1.3-0.1-2.6-0.1-4-0.2C-5879.2,47.1-5883.6,76.2-5888.1,105.9z"/>
		<path d="M-5333.8,131.4c-16.8-4.8-33.5-9.4-50.1-14.7c-2.4-0.8-4.4-4.7-5.3-7.5c-1.9-5.8-2.9-11.8-4.1-17.4
			C-5370.5,96.7-5353.1,115.8-5333.8,131.4z"/>
		<path d="M-5673.3-166.9c3-0.3,6-0.6,9.5-0.9c3.8,15,18.5,24.3,37.6,22.4c0.4,1.2,0.8,2.4,1.1,3.5c-5,1.6-9.9,4-15,4.6
			c-5.6,0.7-11.4-0.2-17.1-0.4c-4-2.3-8.2-4.3-12-6.8c-10.4-7-11.3-13.1-3.6-22.9L-5673.3-166.9z"/>
		<path class="st0" d="M-5672.8-167.3c-7.7,9.8-6.8,15.9,3.6,22.9c3.8,2.5,8,4.6,12,6.8c-8.2-2.9-16.4-5.7-24.6-8.6
			c-1.9-4-3.8-8.1-5.9-12.6C-5683.2-161.4-5678-164.4-5672.8-167.3z"/>
		<path d="M-5675-306.3c7.8,11,15.7,22.1,23.5,33.1c-0.8,0.7-1.6,1.3-2.4,2c-8.4-10.4-16.8-20.9-25.2-31.3
			C-5677.8-303.8-5676.4-305-5675-306.3z"/>
		<path class="st0" d="M-5524.2,330c29.8,25.4,42.1,58.1,40.2,96.6c-6.9-16.9-3.7-37.7-24.1-49.1c-19.4-10.8-37.5-5.9-59.9,1.2
			c12.9-9.6,22.7-17,32.7-24.4c0,3,0,6.3,0,9.9c8,0,15.5,0,23,0c-7.9-20.8-21.4-26.1-39.8-15.7c-21.5,12.1-49.3,17.5-66.9,13
			c17.3-5.2,35-8.9,51.5-15.8c16.1-6.8,30.9-16.7,47.9-26.1C-5521.4,323.5-5522.7,326.5-5524.2,330z"/>
		<path class="st0" d="M-5624.8,402c-57.6,19.4-156.8,11.2-193.8-17.2c8.4,0,17.2-1.7,25.1,0.3
			C-5739.3,398.6-5684.9,409.7-5624.8,402z"/>
		<path class="st0" d="M-5424.7,301c-5.6-15.6-11.7-32.4-17.5-48.5c21.6,34.5,43.3,69.4,65.1,104.3c-0.1,0.6-0.2,1.2-0.3,1.8
			c-6.8-5.4-15.8-9.4-20.1-16.3c-23-36.8-58-35.7-94.3-31.6c-17.5,2-34.8,3.9-50.6-6.9c20.4,0,40.1,0.3,59.9-0.1
			C-5463.3,303.2-5444,301.9-5424.7,301z"/>
		<path class="st0" d="M-6037.7,81.5c20.4-43.9,40.7-87.8,57.2-123.3c-3.5,32.9-7.9,74.8-12.6,119.2c-3.5-13.7-6.7-26.1-10.6-41.4
			c-11.3,16.7-21.5,31.7-31.7,46.7C-6036.3,82.3-6037,81.9-6037.7,81.5z"/>
		<path class="st0" d="M-6065,159.5c-2.9,55.5-4.2,110.2,50,147c-10.3,8.6-17.2,3.4-23.3-2.2c-19.4-17.6-26.2-41.4-31-66
			C-6074.5,211.9-6072.6,185.6-6065,159.5z"/>
		<path class="st0" d="M-6025.5,340.4c21.3,38.1,52.3,40.4,88.9,24.2c-7.7,15.7-28.8,21.7-54.1,16.6
			C-6012.1,376.9-6025.4,362.1-6025.5,340.4z"/>
		<path class="st0" d="M-5938.8,380.3c36.2-13.5,66,8.5,98,9.3C-5874.3,402.9-5904.6,385.4-5938.8,380.3z"/>
		<path class="st0" d="M-5947.7-172.8c2.1,14.6,5,34.5,7.7,52.9c-0.4-0.3-3.1-2.5-7.2-5.9c-5.6,12.7-11.1,24.9-17,38.2
			C-5958.1-118.8-5952.4-148.8-5947.7-172.8z"/>
		<path class="st0" d="M-6056.2,315.3c-5.3,24.4,18.8,29.5,30.9,44.7C-6053.8,357.5-6064.5,341.3-6056.2,315.3z"/>
		<path class="st0" d="M-5976.4,338.5c-15.1,8.3-32.3,6.3-41.5-5.6C-6004.1,334.7-5989.5,336.7-5976.4,338.5z"/>
		<path class="st0" d="M-5520.4,125.5c-12.7,0.1-17.4,17.7-31.2,15.3c-0.8-1.9-1.7-3.7-2.5-5.6c10.6-4.7,21.2-9.5,31.7-14.2
			C-5521.7,122.5-5521.1,124-5520.4,125.5z"/>
		<path class="st0" d="M-5896.9-165.7c30,14.9,59.4,19.3,91.5,8.5C-5826.5-133.2-5874.9-137.7-5896.9-165.7z"/>
		<path class="st0" d="M-5797.3-162.1c15.7,18.7,17.5,19.2,40.2,12c0.3,1.2,0.5,2.4,0.8,3.6c-8.4,1.8-17.6,6.6-25.1,4.7
			c-7.4-1.9-13-10.7-19.4-16.4C-5799.6-159.5-5798.4-160.8-5797.3-162.1z"/>
	</g>
	<text transform="matrix(1 0 0 1 -5225.5796 399.374)" class="st2" style="font-size:988.5424px; letter-spacing:1;">FIT ME</text>
</g>
<path class="st0" d="M57.8,78.8c0.1-0.1,0.3-0.3,0.5-0.6c1.2,1.1,7.8,0.5,8.7-0.9c0.1,0.2,0.2,0.4,0.4,0.6c0.2-0.5,0.4-1,0.7-1.8
	c0,0.7,0,1,0,1.4c0.1,0,0.2,0,0.3,0.1c0.2-0.6,0.3-1.3,0.6-2.1c0.1,0.6,0.1,1,0.2,1.4c0.1,0,0.1,0,0.2,0c0-1,0-1.9,0-2.9
	c0.1,0,0.2,0,0.2,0c0.2,0.6,0.3,1.2,0.5,1.8c0.1,0,0.1,0,0.2,0c-0.1-1-0.2-1.9-0.2-2.9c0.1,0,0.1,0,0.2-0.1c0.2,0.5,0.3,1.1,0.6,1.9
	c0.3-3.2-1.5-5.1-3-7.1c0.1,0.3,0.1,0.6,0.2,0.8c0-0.1,0.1-0.2,0.1-0.3c-2.4-1.7-4.7-3.5-7.2-4.9c-2.7-1.5-5.7-2.6-8.8-4
	c2.6,0.8,4.9,1.5,7.3,2.2c0.8-1.8,2.2-3.1,4.4-3.5c0.1,0.2,0.2,0.4,0.3,0.7c-0.3,0.3-0.7,0.6-1.1,1c2.7,0,5.4,0,8.1,0
	c0,0.2,0.1,0.4,0.1,0.5c-2,0.5-4.4,0.1-5.5,2.4c0.1,0,0.4-0.1,0.9-0.1c-0.5,0.4-0.8,0.7-1.2,1c0.4-0.1,0.7-0.1,0.9-0.2
	c0.6,2.1,2.4,2.5,4.1,3.1c-0.7,0-1.3,0-2,0c-0.1,0.1-0.2,0.3-0.3,0.4c0.8,0.6,1.6,1.3,2.4,1.9c0.7,0.6,1.6,1.2,2.1,2
	c1.2,1.8,2.3,3.8,3.4,5.7c0.3,0.6,0.3,1.4,0.7,2c0.3,0.5-0.1,1.8,1.3,1.5c0.1,0,0.5,1.3,0.8,2.2c0.1-0.5,0.2-0.8,0.3-1.3
	c0.3,0.8,0.5,1.5,0.9,2.5c0.1-0.6,0.2-0.9,0.2-1.3c0.1,0,0.1,0,0.2,0c0.1,0.9,0.2,1.7,0.4,2.7c0.2-0.3,0.4-0.6,0.5-0.9
	c0.1,0,0.1,0,0.2,0.1c-0.1,0.8-0.3,1.5-0.4,2.4c0.3-0.2,0.5-0.4,0.9-0.7c-0.3,0.8-0.5,1.3-0.8,2c-2.4-0.9-4.3-2.5-5.9-4.7
	c-1.3,2.1-0.6,4.4-1.1,6.5c0.3-0.2,0.4-0.4,0.8-0.7c-0.3,1.1-0.6,1.9-1.1,3.3c-1.1-1.7-2.1-3.1-2.9-4.4c0,0.2,0,0.6,0,1
	c-0.2-0.2-0.4-0.4-0.8-0.7c0.2,0.7,0.4,1.2,0.6,1.8c-0.3-0.3-0.5-0.5-0.8-0.7c0.1,2.1-1.2,3.4-2.4,4.8c-0.1,0-0.3-0.1-0.4-0.1
	c-0.2-1.1-0.4-2.2-0.6-3.3c-0.5-2.1-2.3-3.4-4.4-3c-1.6,0.3-3.3,0.8-4.8,1.5C49.1,93,40.7,93.2,32.1,90c-0.7-0.3-1.6-0.3-2.4-0.3
	c-2.4,0.2-4.8,0.3-7.2-0.4c-1.9-0.5-4.1-0.6-6.1-0.5c-2.2,0.1-4.2,0-5.7-1.9c-0.2-0.3-0.6-0.3-1-0.5c-0.9-0.5-2.1-0.8-2.8-1.5
	c-0.5-0.5-0.8-1.6-0.7-2.3c0.3-2.1,0.4-4.2-0.4-6.2c-1.9-5.3-1-10.5,0.8-15.6c1.2-3.3,2.6-6.4,4.1-9.5c3-5.8,5.1-12,6.8-18.3
	c0.3-1.1,0.1-2.4,0.4-3.5c0.4-1.4,0.9-2.9,1.8-4.1c1.3-1.8,3-3.5,4.5-5.2c0.5-0.5,1.1-1.1,1.8-1.4c2.7-1.1,5.4-2.1,8.1-3.1
	c0.1,0.1,0.1,0.3,0.2,0.4c-2.4,1.4-4.9,2.9-7.2,4.2c0,0.2,0-0.1,0.1-0.7c-0.7,1-1.2,1.8-1.8,2.6c0,0-0.1,0-0.1,0
	c0.2-0.5,0.4-1,0.5-1.5c-0.1,0-0.1-0.1-0.2-0.1c-0.2,0.3-0.4,0.5-0.6,0.8c-1,1.6-2,3.2-2.9,4.9c0.1-0.6,0.2-1.1,0.3-1.7
	c-0.1-0.1-0.1-0.1-0.2-0.2c-0.9,1.1-2,2.1-2.7,3.4c-1.1,2-0.5,4.1,0.7,5.7c0.5,0.6,0.1,1.5,1,1.7c0-0.2,0.1-0.5,0.3-1.2
	c0.3,0.9,0.5,1.5,0.7,2.3c-1.8-0.9-2.2,0.4-2.8,1.4c0.2-0.1,0.4-0.2,0.3-0.2c-0.3,3-0.7,6.1-1,9.4c-0.2-0.4-0.4-0.7-0.5-1.1
	c-0.2,0-0.3,0-0.5,0c-0.2,1.6-0.3,3.2-0.5,4.8c-0.2,1.4-0.4,2.7-0.6,4.1c0,0,0.2,0,0.7,0c-0.6,0.5-1.1,0.9-1.6,1.3
	c0,0.1,0.1,0.1,0.1,0.2c0.4-0.1,0.8-0.2,1.2-0.4c0,0.1,0.1,0.1,0.1,0.2c-0.5,0.4-1,0.8-1.5,1.2c0,0.1,0,0.1,0.1,0.2
	c0.4-0.2,0.9-0.3,1.3-0.5c0.1,0.1,0.1,0.1,0.2,0.2c-0.6,0.4-1.1,0.8-2,1.5c0.7-0.2,1.1-0.3,1.5-0.3c0,0.1,0.1,0.1,0.1,0.2
	c-0.6,0.4-1.2,0.8-2,1.4c-0.4-0.8-0.8-1.5-1.1-2.1c-2.6,1-3.7,11.8-1.8,16.7c0.1-0.3,0.2-0.5,0.2-0.9c0.3,0.9,0.5,1.8,0.7,2.6
	c0.1,0,0.1,0,0.2,0c-0.1-0.5-0.1-1-0.2-1.7c0.6,1.3,1,2.3,1.5,3.4c0.1-0.3,0.2-0.5,0.4-0.8c0.3,0.4,0.5,0.8,0.6,1
	c0.7,0.2,1.3,0.4,1.8,0.5c0,0.1,0.1,0.3,0.1,0.4c-1.3,0.6-2.6,1.2-4.3,2c1.2,0.2,2,0.3,2.9,0.5c-0.1-0.3-0.2-0.5-0.2-0.6
	c2.3,0.2,3.6-1.8,5.8-2.4c-1.1,1.5-2,2.9-2.9,4.1c2.9,2.5,5.9,2.1,9,0.5c0,0.1,0.1,0.3,0.1,0.4c-0.2,0.3-0.4,0.5-0.6,0.8
	c-0.3,0.3-0.5,0.5-0.9,0.8c0.3,0.4,0.5,0.7,0.8,1c0.1-0.1,0.2-0.2,0.4-0.3c0-0.2-0.1-0.4-0.1-0.4c0.7-0.1,1.5,0,2.2-0.2
	c2.1-0.7,4.1-1.6,6.2-2.3c0.5-0.2,1.1-0.2,1.7-0.1c-0.3,0.1-0.6,0.2-0.7,0.3c0.8,0.4,1.6,0.8,2.4,1.2c0.7,0.3,1.5,0.6,2.3,0.7
	c4.7,0.4,9.4,0.2,13.9-1.5c1.3-0.5,2.4-1.5,3.3-2.6C58.7,80.7,58.1,79.6,57.8,78.8z M63.5,82.8c0.2-0.4,0.3-0.7,0.5-1.1
	c-1.8,1-3.4,2.1-5.1,2.8c-1.7,0.7-3.6,1.1-5.5,1.7c1.9,0.5,4.8-0.1,7.1-1.4c2-1.1,3.4-0.5,4.2,1.7c-0.8,0-1.6,0-2.4,0
	c0-0.4,0-0.7,0-1c-1.1,0.8-2.1,1.6-3.5,2.6c2.4-0.7,4.3-1.3,6.4-0.1c2.2,1.2,1.8,3.4,2.6,5.2C68,88.9,66.7,85.5,63.5,82.8z
	 M52.8,90.4c-6.4,0.8-12.1-0.4-17.9-1.8c-0.8-0.2-1.8,0-2.7,0C36.2,91.6,46.7,92.5,52.8,90.4z M74,79.7c-2.1,0.1-4.1,0.2-6.1,0.3
	c-2.1,0-4.2,0-6.4,0c1.7,1.1,3.5,0.9,5.4,0.7c3.8-0.4,7.6-0.5,10,3.4c0.5,0.7,1.4,1.2,2.1,1.7c0-0.1,0-0.1,0-0.2
	c-2.3-3.7-4.6-7.4-6.9-11.1C72.8,76.3,73.4,78.1,74,79.7z M9,56.4c0.1,0,0.2,0.1,0.2,0.1c1.1-1.6,2.2-3.2,3.4-5
	c0.4,1.6,0.8,2.9,1.1,4.4c0.5-4.7,1-9.1,1.3-12.6C13.3,47.1,11.2,51.8,9,56.4z M6.1,64.7c-0.8,2.8-1,5.6-0.5,8.4
	c0.5,2.6,1.2,5.1,3.3,7c0.7,0.6,1.4,1.2,2.5,0.2C5.7,76.4,5.8,70.6,6.1,64.7z M10.3,83.9c0,2.3,1.4,3.9,3.7,4.3
	c2.7,0.5,4.9-0.1,5.7-1.8C15.9,88.2,12.6,87.9,10.3,83.9z M19.5,88.1c3.6,0.5,6.8,2.4,10.4,1C26.5,89,23.3,86.7,19.5,88.1z
	 M18.6,29.4c-0.5,2.5-1.1,5.7-1.7,9c0.6-1.4,1.2-2.7,1.8-4.1c0.4,0.4,0.7,0.6,0.8,0.6C19.1,33.1,18.8,31,18.6,29.4z M7.1,81.2
	C6.2,84,7.3,85.7,10.3,86C9,84.4,6.5,83.8,7.1,81.2z M15.5,83.7c-1.4-0.2-2.9-0.4-4.4-0.6C12.1,84.3,13.9,84.6,15.5,83.7z
	 M63.9,61.1c-0.1-0.2-0.1-0.3-0.2-0.5c-1.1,0.5-2.2,1-3.4,1.5c0.1,0.2,0.2,0.4,0.3,0.6C62,63,62.5,61.1,63.9,61.1z"/>
<path class="st0" d="M46.8,32.3c-1-1-1.5,0.4-2.3,0.6c-0.7,0.2-1.3,0.6-2,0.7c-1.2,0.2-2.4,0.4-3.6,0.5c-1.6,0-3.3-0.1-4.9-0.1
	c-0.3,0-0.7,0-1,0.2c-1.9,1.5-4.1,1.2-6.2,0.9c-0.8-0.1-1.5-0.7-2.1-1.3c1.3,0.1,2.7,0.2,4,0.3c0-0.1,0-0.2,0.1-0.4
	c-1.5-0.4-3-0.6-4.4-1.3c-1.9-1-2.7-2.3-1.9-3.7c0.3,0.7,0.6,1.4,1,2.4c0-1.3,0-2.3,0-3.3c1.1,0.4,2,0.8,3,0.9
	c2.5,0.4,2.8,0.1,2.6-2.2c0.8,0.3,1.7,0.6,2.7,1c-0.3-0.6-0.4-1.1-0.8-1.8c0.9,0.5,1.6,0.9,2.4,1.4c0-1,0-1.6,0-2.4
	c0.5,0.6,0.8,1.1,1.2,1.6c0.1-0.1,0.2-0.1,0.4-0.2c0-0.7,0-1.5,0-2.1c0.9,1.5,1.8,3,2.8,4.5c0.3,0.4,0.9,0.7,1.4,0.8
	c1.5,0.1,2-0.6,1.4-2c-0.4-0.9-0.8-1.8-1.2-2.8c0.2-0.1,0.3-0.1,0.5-0.2c0.7,1,1.4,2,2.1,3c0.2,0.3,0.5,0.7,0.7,1.1
	c0.5,0.8,1.3,0.8,2,0.4c0.3-0.2,0.6-1.1,0.4-1.5c-0.5-1.3-1.3-2.6-1.9-3.9c-0.3-0.6-0.5-1.2-0.6-1.9c0-0.2,0.4-0.5,0.8-0.7
	c-0.9,1.6,0.7,2.3,1.1,3.4c0.4,1,1.2,1.9,1.7,2.9c0.5,1,1.3,1.1,2.3,0.7c1.1-0.4,0.7-1.3,0.4-2c-0.6-1.4-1.4-2.6-2.1-4
	c-0.4-0.7-0.8-1.5-0.3-2.1c1,1.6,1.9,3.2,3,4.7c0.4,0.5,1.3,1.1,1.6,1c0.6-0.3,1-1.1,1.4-1.5c0.4,1.4-0.6,2.4-1.8,3.5
	c-0.3,0.3-0.4,0.8-0.6,1.2c-1.4-0.8-1.8,0.6-2.4,1.5l0.1,0c-0.5,0.3-1.1,0.6-1.6,0.9C46.4,31.4,46.6,31.8,46.8,32.3z M23.9,30.2
	c2.3,3,7.5,3.4,9.7,0.9C30.2,32.2,27.1,31.8,23.9,30.2z M34.5,30.6c-0.1,0.1-0.2,0.3-0.4,0.4c0.7,0.6,1.3,1.5,2.1,1.7
	c0.8,0.2,1.8-0.3,2.7-0.5c0-0.1-0.1-0.3-0.1-0.4C36.4,32.6,36.2,32.6,34.5,30.6z"/>
<path class="st0" d="M46.2,74.9c-3.1,0.3-6.1,0.7-9-1.5c0.2,0.4,0.4,0.7,0.5,1c-0.1,0-0.1,0.1-0.2,0.1c-0.6-0.7-1.2-1.4-1.9-2.1
	c-0.1,0-0.1,0.1-0.2,0.1c0.2,0.5,0.5,0.9,0.7,1.4c-0.1,0.1-0.1,0.1-0.2,0.2c-0.9-1.2-1.8-2.4-2.8-3.7c-0.1,0.2-0.2,0.4-0.4,0.7
	c-0.1,0-0.1,0-0.2-0.1c0.1-1.1,0.1-2.1,0.2-3.4c-1.8,1.4-2.4,4-5.3,4.2c1.6-1.8,2.8-3.5,2.6-5.8c-1.4,2.9-2.3,6.5-6.8,5.8
	c2.7-0.5,4.4-2.3,5.6-4.6c-1.2,0.2-2.5,0.4-3.8,0.6c-0.1-0.2-0.2-0.5-0.3-0.7c3.2,0.1,4.7-1.7,6-4.2c-0.1,0.9-0.2,1.8-0.3,2.6
	c1.3-0.5,2.6-1,4.3-1.6c-0.3,1.1-0.5,1.8-0.6,2.2c1.3-1.5,2.7-3.2,4.3-4.7c0.4-0.5,1.2-0.6,1.9-0.8c-1,0.9-2.6,1.5-1.5,3.3
	c0.1-0.2,0.1-0.5,0.3-1c0.1,0.4,0.2,0.6,0.2,0.7c0.3-0.1,0.7-0.2,1-0.3c-1.3,1.5-2.8,2.6-2.7,5c0.2-0.2,0.3-0.3,0.3-0.4
	c0.5,1,1,2.1,1.5,3.4c0.1-0.4,0.1-0.7,0.2-1C40.9,73.2,43.7,73.8,46.2,74.9z"/>
<path class="st0" d="M24.9,59c-0.1,0-0.3-0.1-0.7-0.3c0.4,0.7,0.7,1.1,1,1.6c0,0-0.1,0.1-0.1,0.1c-0.3-0.2-0.6-0.5-1-0.7
	c-0.1,0.1-0.1,0.1-0.2,0.2c0.5,0.6,1,1.3,1.5,1.9c-0.1,0.1-0.2,0.1-0.3,0.2c-0.9-0.8-1.8-1.6-1.6-2.9c0.4-2.6,0.9-5.2,1.5-7.8
	c0.6-2.6,1.7-5.2,2-7.9c0.2-1.9,0.8-3.4,1.9-5.2c-0.6,2.5-1.1,4.7-1.8,6.8c-0.7,2.3,0.3,4.3,0.7,6.5c-0.3-0.6-0.7-1.2-1-1.8
	c-0.1,0-0.3,0-0.4,0C25.8,52.8,25.4,55.9,24.9,59z"/>
<path class="st0" d="M83.7,61.7c-1.8-0.5-3.6-1-5.3-1.6c-0.3-0.1-0.5-0.5-0.6-0.8c-0.2-0.6-0.3-1.3-0.4-1.8
	C79.8,58,81.6,60.1,83.7,61.7z"/>
<path class="st0" d="M47.7,30.1c0.3,0,0.6-0.1,1-0.1c0.4,1.6,2,2.6,4,2.4c0,0.1,0.1,0.3,0.1,0.4c-0.5,0.2-1,0.4-1.6,0.5
	c-0.6,0.1-1.2,0-1.8,0c-0.4-0.2-0.9-0.5-1.3-0.7C47,31.7,46.9,31.1,47.7,30.1L47.7,30.1z"/>
<path class="st0" d="M47.7,30c-0.8,1-0.7,1.7,0.4,2.4c0.4,0.3,0.8,0.5,1.3,0.7c-0.9-0.3-1.7-0.6-2.6-0.9c-0.2-0.4-0.4-0.9-0.6-1.3
	C46.6,30.6,47.2,30.3,47.7,30z"/>
<path class="st0" d="M47.5,15.3c0.8,1.2,1.7,2.3,2.5,3.5c-0.1,0.1-0.2,0.1-0.3,0.2c-0.9-1.1-1.8-2.2-2.7-3.3
	C47.2,15.5,47.3,15.4,47.5,15.3z"/>
<path class="st0" d="M63.9,61.1c-1.3,0-1.8,1.9-3.3,1.6c-0.1-0.2-0.2-0.4-0.3-0.6c1.1-0.5,2.2-1,3.4-1.5
	C63.7,60.8,63.8,60.9,63.9,61.1z"/>
<g>
	<path class="st1" d="M63.5,82.8c3.2,2.7,4.5,6.2,4.3,10.2c-0.7-1.8-0.4-4-2.6-5.2c-2.1-1.1-4-0.6-6.4,0.1c1.4-1,2.4-1.8,3.5-2.6
		c0,0.3,0,0.7,0,1c0.8,0,1.6,0,2.4,0c-0.8-2.2-2.3-2.8-4.2-1.7c-2.3,1.3-5.2,1.9-7.1,1.4c1.8-0.5,3.7-0.9,5.5-1.7
		c1.7-0.7,3.3-1.8,5.1-2.8C63.8,82.1,63.6,82.4,63.5,82.8z"/>
	<path class="st1" d="M52.8,90.4c-6.1,2.1-16.6,1.2-20.6-1.8c0.9,0,1.8-0.2,2.7,0C40.7,90.1,46.4,91.2,52.8,90.4z"/>
	<path class="st1" d="M74,79.7c-0.6-1.7-1.2-3.4-1.9-5.1c2.3,3.7,4.6,7.4,6.9,11.1c0,0.1,0,0.1,0,0.2c-0.7-0.6-1.7-1-2.1-1.7
		c-2.4-3.9-6.2-3.8-10-3.4c-1.9,0.2-3.7,0.4-5.4-0.7c2.2,0,4.3,0,6.4,0C69.9,79.9,72,79.8,74,79.7z"/>
	<path class="st1" d="M9,56.4c2.2-4.7,4.3-9.3,6.1-13.1c-0.4,3.5-0.8,7.9-1.3,12.6c-0.4-1.5-0.7-2.8-1.1-4.4c-1.2,1.8-2.3,3.4-3.4,5
		C9.2,56.5,9.1,56.5,9,56.4z"/>
	<path class="st1" d="M6.1,64.7c-0.3,5.9-0.4,11.7,5.3,15.6c-1.1,0.9-1.8,0.4-2.5-0.2c-2.1-1.9-2.8-4.4-3.3-7
		C5.1,70.2,5.3,67.5,6.1,64.7z"/>
	<path class="st1" d="M10.3,83.9c2.3,4,5.6,4.3,9.4,2.6c-0.8,1.7-3.1,2.3-5.7,1.8C11.7,87.8,10.3,86.2,10.3,83.9z"/>
	<path class="st1" d="M19.5,88.1c3.8-1.4,7,0.9,10.4,1C26.3,90.5,23.1,88.7,19.5,88.1z"/>
	<path class="st1" d="M18.6,29.4c0.2,1.5,0.5,3.7,0.8,5.6c0,0-0.3-0.3-0.8-0.6c-0.6,1.3-1.2,2.6-1.8,4.1
		C17.4,35.2,18.1,32,18.6,29.4z"/>
	<path class="st1" d="M7.1,81.2c-0.6,2.6,2,3.1,3.3,4.7C7.3,85.7,6.2,84,7.1,81.2z"/>
	<path class="st1" d="M15.5,83.7c-1.6,0.9-3.4,0.7-4.4-0.6C12.6,83.3,14.1,83.5,15.5,83.7z"/>
	<path class="st1" d="M23.9,30.2c3.2,1.6,6.3,2,9.7,0.9C31.4,33.6,26.3,33.2,23.9,30.2z"/>
	<path class="st1" d="M34.5,30.6c1.7,2,1.9,2,4.3,1.3c0,0.1,0.1,0.3,0.1,0.4c-0.9,0.2-1.9,0.7-2.7,0.5c-0.8-0.2-1.4-1.1-2.1-1.7
		C34.3,30.9,34.4,30.7,34.5,30.6z"/>
</g>
<text transform="matrix(1 0 0 1 95.1593 90.1362)" class="st0 st2 st3">FIT ME</text>
</svg>
